<svg xmlns="http://www.w3.org/2000/svg" width="64" height="64" viewBox="0 0 64 64">
  <defs><linearGradient id="g" x1="0" y1="0" x2="1" y2="1"><stop stop-color="#7c5cff"/><stop offset="1" stop-color="#22e1ff"/></linearGradient></defs>
  <rect x="2" y="2" width="60" height="60" rx="16" fill="url(#g)"/>
  <path d="M20 34c0-7.2 5.8-13 13-13 4.8 0 9 2.5 11.3 6.4l-4.9 2.7A8.01 8.01 0 0 0 33 25c-4.4 0-8 3.6-8 8s3.6 8 8 8a8 8 0 0 0 7.4-4.8l4.9 2.7A13 13 0 0 1 33 47c-7.2 0-13-5.8-13-13z" fill="#fff"/>
</svg>