<svg xmlns="http://www.w3.org/2000/svg" viewBox="0 0 24 24"><path fill="currentColor" d="M12 2a1 1 0 0 1 1 1v2a1 1 0 1 1-2 0V3a1 1 0 0 1 1-1Zm0 16a6 6 0 1 1 0-12 6 6 0 0 1 0 12Zm9-7a1 1 0 0 1 1 1v0a1 1 0 1 1-2 0v0a1 1 0 0 1 1-1ZM4 12a1 1 0 1 1-2 0v0a1 1 0 1 1 2 0v0Zm15.07 6.07a1 1 0 0 1 0 1.41l-.01.01a1 1 0 0 1-1.41 0l-1.42-1.42a1 1 0 0 1 1.41-1.41l1.43 1.41ZM7.77 6.34a1 1 0 0 1-1.41 0L4.94 4.92A1 1 0 1 1 6.35 3.5l1.41 1.42a1 1 0 0 1 0 1.41Zm8.49 0a1 1 0 0 1 0-1.41L17.67 3.5a1 1 0 1 1 1.41 1.41l-1.41 1.42a1 1 0 0 1-1.41 0ZM6.34 16.24l1.42 1.41a1 1 0 0 1-1.41 1.41L4.93 17.66A1 1 0 1 1 6.34 16.24Z"/></svg>